<svg width="264" height="40" viewBox="0 0 264 40" fill="none" xmlns="http://www.w3.org/2000/svg">
<path d="M74.48 14.264C72.064 14.264 70.688 16.216 70.688 19.624C70.688 23.128 72.096 25.176 74.48 25.176C76.864 25.176 78.272 23.128 78.272 19.624C78.272 16.216 76.896 14.264 74.48 14.264ZM74.48 15.816C75.84 15.816 76.512 17.064 76.512 19.64C76.512 22.264 75.824 23.624 74.48 23.624C73.136 23.624 72.448 22.264 72.448 19.64C72.448 17.064 73.12 15.816 74.48 15.816ZM87.2891 23.528H85.3371V15.112C85.3371 14.648 84.9531 14.264 84.4891 14.264C84.3931 14.264 84.2331 14.296 84.0571 14.376L81.2251 15.512C80.8411 15.672 80.6811 15.96 80.6811 16.264C80.6811 16.68 80.9851 17.064 81.4331 17.064C81.5291 17.064 81.6411 17.048 81.7531 17L83.6411 16.264V23.528H81.3531C80.9051 23.528 80.5691 23.848 80.5691 24.264C80.5691 24.68 80.9051 25 81.3531 25H87.2891C87.7371 25 88.0731 24.68 88.0731 24.264C88.0731 23.848 87.7371 23.528 87.2891 23.528Z" fill="#242424"/>
<line x1="97" y1="19.5" x2="113" y2="19.5" stroke="#242424"/>
<path d="M125.48 14.264C123.064 14.264 121.688 16.216 121.688 19.624C121.688 23.128 123.096 25.176 125.48 25.176C127.864 25.176 129.272 23.128 129.272 19.624C129.272 16.216 127.896 14.264 125.48 14.264ZM125.48 15.816C126.84 15.816 127.512 17.064 127.512 19.64C127.512 22.264 126.824 23.624 125.48 23.624C124.136 23.624 123.448 22.264 123.448 19.64C123.448 17.064 124.12 15.816 125.48 15.816ZM138.289 23.48H134.145L136.321 21.48C137.569 20.328 138.545 19.08 138.545 17.544C138.545 15.672 137.089 14.264 135.057 14.264C132.945 14.264 131.649 15.784 131.537 17.368C131.505 17.528 131.505 17.688 131.505 17.912C131.553 18.392 131.921 18.792 132.401 18.792C132.865 18.792 133.201 18.456 133.233 18.024V17.672C133.281 16.68 133.953 15.832 135.057 15.832C136.129 15.832 136.801 16.632 136.801 17.624C136.801 18.6 136.209 19.432 135.057 20.488L131.825 23.464C131.601 23.672 131.457 23.88 131.457 24.152C131.457 24.616 131.841 25 132.305 25H138.289C138.737 25 139.073 24.648 139.073 24.232C139.073 23.832 138.737 23.48 138.289 23.48Z" fill="#242424"/>
<path d="M152.48 14.264C150.064 14.264 148.688 16.216 148.688 19.624C148.688 23.128 150.096 25.176 152.48 25.176C154.864 25.176 156.272 23.128 156.272 19.624C156.272 16.216 154.896 14.264 152.48 14.264ZM152.48 15.816C153.84 15.816 154.512 17.064 154.512 19.64C154.512 22.264 153.824 23.624 152.48 23.624C151.136 23.624 150.448 22.264 150.448 19.64C150.448 17.064 151.12 15.816 152.48 15.816ZM162.521 18.344L164.985 15.928C165.193 15.736 165.289 15.528 165.289 15.288C165.289 14.824 164.905 14.44 164.441 14.44H159.305C158.857 14.44 158.521 14.776 158.521 15.208C158.521 15.656 158.857 15.992 159.305 15.992H162.889L160.537 18.28C160.281 18.504 160.185 18.712 160.185 18.952C160.185 19.416 160.537 19.768 161.001 19.768H161.353C162.921 19.768 163.785 20.44 163.785 21.624C163.785 22.808 162.905 23.624 161.625 23.624C160.777 23.624 160.105 23.256 159.497 22.488C159.337 22.312 159.145 22.216 158.905 22.216C158.489 22.216 158.137 22.552 158.137 22.984C158.137 23.128 158.169 23.304 158.281 23.448C159.097 24.568 160.313 25.176 161.673 25.176C163.881 25.176 165.529 23.656 165.529 21.608C165.529 19.88 164.265 18.536 162.521 18.344Z" fill="#242424"/>
<path d="M179.48 14.264C177.064 14.264 175.688 16.216 175.688 19.624C175.688 23.128 177.096 25.176 179.48 25.176C181.864 25.176 183.272 23.128 183.272 19.624C183.272 16.216 181.896 14.264 179.48 14.264ZM179.48 15.816C180.84 15.816 181.512 17.064 181.512 19.64C181.512 22.264 180.824 23.624 179.48 23.624C178.136 23.624 177.448 22.264 177.448 19.64C177.448 17.064 178.12 15.816 179.48 15.816ZM192.385 21.592H191.857V19.192C191.857 18.712 191.489 18.344 191.009 18.344C190.529 18.344 190.161 18.712 190.161 19.192V21.592H187.009L189.617 15.464C189.681 15.32 189.697 15.224 189.697 15.112C189.697 14.648 189.313 14.264 188.849 14.264C188.465 14.264 188.161 14.504 188.033 14.856L185.009 21.992C184.961 22.104 184.945 22.2 184.945 22.312C184.945 22.776 185.313 23.16 185.793 23.16H190.161V24.328C190.161 24.808 190.545 25.176 191.009 25.176C191.489 25.176 191.857 24.808 191.857 24.328V23.16H192.385C192.913 23.16 193.185 22.76 193.185 22.376C193.185 21.992 192.913 21.592 192.385 21.592Z" fill="#242424"/>
<path d="M239 30L249 20L239 10" stroke="#242424" stroke-width="2" stroke-linecap="round" stroke-linejoin="round"/>
<rect x="225" y="1" width="38" height="38" rx="9" stroke="#BB2339" stroke-width="2"/>
<path d="M25 30L15 20L25 10" stroke="#646464" stroke-width="2" stroke-linecap="round" stroke-linejoin="round"/>
<rect x="-1" y="1" width="38" height="38" rx="9" transform="matrix(-1 0 0 1 38 0)" stroke="#646464" stroke-width="2"/>
</svg>
